<svg
   xmlns="http://www.w3.org/2000/svg"
   viewBox="0 0 464 154.66667"
   height="154.66667"
   width="464"
   xml:space="preserve"
   version="1.1">
  <defs>
    <clipPath id="clipPath18" clipPathUnits="userSpaceOnUse">
      <path d="M 0,0 H 348 V 116 H 0 Z" />
    </clipPath>
    <clipPath id="clipPath66" clipPathUnits="userSpaceOnUse">
      <path d="M 0,116 H 348 V 0 H 0 Z" />
    </clipPath>
  </defs>
  <g transform="matrix(1.3333333,0,0,-1.3333333,0,154.66667)">
    <g clip-path="url(#clipPath18)">
      <path style="fill:none;stroke:#828181;stroke-width:0.75;stroke-linecap:butt;stroke-linejoin:miter;stroke-miterlimit:10;stroke-dasharray:none;stroke-opacity:1" d="m 0,0 c 3.59,0.42 7.08,0.41 10.47,-0.021 0.82,-0.099 1.58,0.441 1.76,1.241 l 11.99,54.4 c 0.25,1.12 -0.2,1.71 -1.35,1.78 L 8.03,58.23 c -0.41,0.02 -0.74,0.2 -0.97,0.54 -3.27,4.74 -8.08,7.45 -14.45,8.14 -9.07,0.98 -18.82,-0.31 -24.34,-8.22 -0.32,-0.47 -0.87,-0.73 -1.44,-0.69 -4.71,0.37 -9.79,0.39 -15.22,0.08 -0.95,-0.05 -1.61,-0.97 -1.37,-1.89 0.96,-3.67 1.82,-7.42 2.57,-11.27 0.79,-4.05 1.59,-7.81 2.39,-11.27 1.39,-6 2.23,-11.791 3.72,-17.81 1.01,-4.09 1.82,-8.24 2.41,-12.441 0.15,-1.049 1.03,-1.849 2.1,-1.889 l 10.26,-0.34 c 0.7,-0.021 1.28,-0.561 1.35,-1.25 l 1.5,-13.76 c 0.16,-1.44 0.96,-2.15 2.41,-2.14 l 16.08,0.19 c 1.51,0.019 2.36,0.78 2.55,2.28 l 1.58,12.68 C -0.77,-0.34 -0.49,-0.061 0,0" />
    </g>
    <g transform="translate(156.7002,86.3867)">
      <path style="fill:none;stroke:#828181;stroke-width:0.75;stroke-linecap:butt;stroke-linejoin:miter;stroke-miterlimit:10;stroke-dasharray:none;stroke-opacity:1" d="M 0,0 C 0,0.313 -0.26,0.573 -0.573,0.567 L -17.453,0.479 C -17.77,0.473 -18.02,0.223 -18.02,-0.094 l 0.199,-38 c 0.001,-0.312 0.261,-0.573 0.573,-0.566 l 16.88,0.088 c 0.318,0.006 0.568,0.256 0.567,0.573 L 0,0" />
    </g>
    <g transform="translate(165.25,80.8799)">
      <path style="fill:none;stroke:#828181;stroke-width:0.75;stroke-linecap:butt;stroke-linejoin:miter;stroke-miterlimit:10;stroke-dasharray:none;stroke-opacity:1" d="m 0,0 c 0,-0.38 0.3,-0.68 0.68,-0.69 l 15.07,-0.17 c 0.37,-0.01 0.68,-0.32 0.68,-0.69 L 16.3,-32.27 c 0,-0.379 0.3,-0.68 0.68,-0.69 l 13.82,-0.189 c 0.38,-0.011 0.7,0.309 0.7,0.689 l -0.08,30.89 c 0,0.38 0.31,0.69 0.69,0.69 L 47,-0.81 c 0.38,0 0.68,0.3 0.68,0.68 l 0.04,5.45 c 0.01,0.39 -0.3,0.7 -0.69,0.7 L 0.69,5.99 C 0.31,5.99 0,5.68 0,5.3 V 0" />
    </g>
    <g transform="translate(257.9902,67.8999)">
      <path style="fill:none;stroke:#828181;stroke-width:0.75;stroke-linecap:butt;stroke-linejoin:miter;stroke-miterlimit:10;stroke-dasharray:none;stroke-opacity:1" d="m 0,0 c 1.189,0.78 2.49,1.3 3.63,2.17 4.25,3.2 4.599,9.8 0.38,13.21 -2.111,1.71 -4.49,2.62 -7.14,2.73 -6.69,0.29 -13.53,0.5 -20.53,0.64 -3.42,0.07 -7.14,-0.01 -11.17,-0.24 -0.78,-0.04 -1.4,-0.69 -1.4,-1.47 l 0.009,-36.67 c 0,-0.329 0.16,-0.5 0.491,-0.53 6.89,-0.47 13.83,-0.549 20.83,-0.25 3.17,0.14 6.29,-0.14 9.41,-0.2 5.88,-0.11 15.61,3.42 14.23,11.21 C 7.95,-4.89 4.31,-2.07 0.1,-0.68 -0.4,-0.51 -0.431,-0.29 0,0" />
    </g>
    <g transform="translate(286.6602,57.9102)">
      <path style="fill:none;stroke:#828181;stroke-width:0.75;stroke-linecap:butt;stroke-linejoin:miter;stroke-miterlimit:10;stroke-dasharray:none;stroke-opacity:1" />
    </g>
  </g>
</svg>
